<svg xmlns="http://www.w3.org/2000/svg">
  <symbol id="icon-lock" viewBox="0 0 24 24"><rect x="4" y="10" width="16" height="11" rx="3"/><path d="M8 10V7a4 4 0 0 1 8 0v3"/></symbol>
  <symbol id="icon-search" viewBox="0 0 24 24"><circle cx="11" cy="11" r="7"/><path d="m20 20-4-4"/></symbol>
  <symbol id="icon-user" viewBox="0 0 24 24"><circle cx="12" cy="8" r="4"/><path d="M5 21a7 7 0 0 1 14 0"/></symbol>
  <symbol id="icon-heart" viewBox="0 0 24 24"><path d="M20.8 4.6a5.5 5.5 0 0 0-7.8 0L12 5.7l-1.1-1.1a5.5 5.5 0 0 0-7.8 7.8l1.1 1.1L12 21l7.8-7.5 1.1-1.1a5.5 5.5 0 0 0-.1-7.8Z"/></symbol>
  <symbol id="icon-cart" viewBox="0 0 24 24"><path d="M3 3h2l2.4 11.2a2 2 0 0 0 2 1.6h7.8a2 2 0 0 0 2-1.6L21 7H6"/><circle cx="10" cy="20" r="1"/><circle cx="18" cy="20" r="1"/></symbol>
  <symbol id="icon-menu" viewBox="0 0 24 24"><path d="M4 7h16M4 12h16M4 17h16"/></symbol>
  <symbol id="icon-x" viewBox="0 0 24 24"><path d="m6 6 12 12M18 6 6 18"/></symbol>
  <symbol id="icon-chevron" viewBox="0 0 24 24"><path d="m9 18 6-6-6-6"/></symbol>
  <symbol id="icon-arrow" viewBox="0 0 24 24"><path d="M5 12h14m-6-6 6 6-6 6"/></symbol>
  <symbol id="icon-filter" viewBox="0 0 24 24"><path d="M4 5h16l-6 7v5l-4 2v-7Z"/></symbol>
  <symbol id="icon-star" viewBox="0 0 24 24"><path d="m12 3 2.8 5.7 6.2.9-4.5 4.4 1.1 6.2-5.6-3-5.6 3 1.1-6.2L3 9.6l6.2-.9Z"/></symbol>
  <symbol id="icon-check" viewBox="0 0 24 24"><path d="m5 12 4 4L19 6"/></symbol>
  <symbol id="icon-shield" viewBox="0 0 24 24"><path d="M12 3 20 6v6c0 5-3.4 8-8 9-4.6-1-8-4-8-9V6Z"/><path d="m8.5 12 2.2 2.2 4.8-5"/></symbol>
  <symbol id="icon-truck" viewBox="0 0 24 24"><path d="M3 6h11v10H3zM14 10h4l3 3v3h-7z"/><circle cx="7" cy="18" r="2"/><circle cx="18" cy="18" r="2"/></symbol>
  <symbol id="icon-wifi" viewBox="0 0 24 24"><path d="M5 9a11 11 0 0 1 14 0M8 12a7 7 0 0 1 8 0M11 16a2 2 0 0 1 2 0"/><circle cx="12" cy="19" r="1"/></symbol>
  <symbol id="icon-fingerprint" viewBox="0 0 24 24"><path d="M8 7a6 6 0 0 1 10 4c0 4-1 7-3 10M5 11a7 7 0 0 1 12-5M6 15c0 3-1 4-2 5M9 10c2-3 6-1 6 2 0 4-1 7-3 9M10 14c0 2-.5 4-1.5 6"/></symbol>
  <symbol id="icon-phone" viewBox="0 0 24 24"><path d="M5 4h4l2 5-3 2a16 16 0 0 0 5 5l2-3 5 2v4c0 1-1 2-2 2C10 20 4 14 3 6c0-1 1-2 2-2Z"/></symbol>
  <symbol id="icon-mail" viewBox="0 0 24 24"><rect x="3" y="5" width="18" height="14" rx="2"/><path d="m4 7 8 6 8-6"/></symbol>
  <symbol id="icon-pin" viewBox="0 0 24 24"><path d="M20 10c0 5-8 11-8 11S4 15 4 10a8 8 0 1 1 16 0Z"/><circle cx="12" cy="10" r="2"/></symbol>
  <symbol id="icon-minus" viewBox="0 0 24 24"><path d="M5 12h14"/></symbol>
  <symbol id="icon-plus" viewBox="0 0 24 24"><path d="M12 5v14M5 12h14"/></symbol>
  <symbol id="icon-share" viewBox="0 0 24 24"><circle cx="18" cy="5" r="3"/><circle cx="6" cy="12" r="3"/><circle cx="18" cy="19" r="3"/><path d="m8.7 10.7 6.6-4.2m-6.6 6.8 6.6 4.2"/></symbol>
  <symbol id="icon-box" viewBox="0 0 24 24"><path d="m12 3 8 4-8 4-8-4Z"/><path d="m4 7 8 4v10l-8-4Zm16 0-8 4v10l8-4Z"/></symbol>
</svg>
